<?xml version="1.0" standalone="no"?>
<!DOCTYPE svg PUBLIC "-//W3C//DTD SVG 20010904//EN"
 "http://www.w3.org/TR/2001/REC-SVG-20010904/DTD/svg10.dtd">
<svg version="1.0" xmlns="http://www.w3.org/2000/svg"
 width="512.000000pt" height="512.000000pt" viewBox="0 0 512.000000 512.000000"
 preserveAspectRatio="xMidYMid meet">
<metadata>
Created by potrace 1.14, written by Peter Selinger 2001-2017
</metadata>
<g transform="translate(0.000000,512.000000) scale(0.100000,-0.100000)"
fill="#000000" stroke="none">
<path d="M0 4233 l1 -888 45 -60 c27 -36 42 -65 38 -75 -3 -8 -16 -64 -29
-125 -41 -194 -49 -280 -50 -515 0 -102 3 -219 7 -260 22 -234 98 -530 193
-755 28 -66 132 -272 153 -302 10 -15 39 -59 63 -98 103 -163 284 -373 449
-518 348 -308 833 -536 1277 -603 21 -3 49 -7 63 -10 101 -19 470 -26 605 -11
596 64 1138 321 1557 739 61 61 89 83 74 60 -3 -4 -1 -26 4 -48 27 -121 29
-389 4 -559 -12 -85 -15 -102 -29 -152 l-13 -53 354 0 354 0 0 904 c0 710 -3
907 -12 918 -7 7 -26 30 -42 52 -28 37 -28 40 -17 90 6 28 13 61 16 74 2 13 6
31 9 40 8 27 21 115 33 227 10 90 10 408 1 505 -35 344 -133 662 -302 975 -73
136 -198 323 -261 391 -5 6 -30 35 -55 65 -239 284 -583 528 -985 699 -122 52
-370 120 -531 146 -20 3 -46 7 -58 10 -130 25 -664 25 -705 -1 -4 -2 -34 -7
-66 -10 -109 -13 -387 -87 -490 -130 -16 -7 -55 -23 -85 -35 -284 -115 -578
-312 -811 -542 -38 -38 -70 -68 -73 -68 -3 0 -7 26 -24 150 -8 67 -8 345 1
424 8 71 35 215 43 228 3 5 -155 8 -350 8 l-356 0 0 -887z"/>
</g>
</svg>
